<svg width="299" height="46" viewBox="0 0 299 46" fill="none" xmlns="http://www.w3.org/2000/svg">
<g clip-path="url(#clip0_5514_93)">
<g clip-path="url(#clip1_5514_93)">
<g clip-path="url(#clip2_5514_93)">
<path d="M8.49933 29.6667C5.20378 29.6232 2.54277 26.9622 2.49933 23.6667C2.54277 20.3711 5.20378 17.7101 8.49933 17.6667C11.7949 17.7101 14.4559 20.3711 14.4993 23.6667C14.4559 26.9622 11.7949 29.6232 8.49933 29.6667ZM8.49933 19C5.93611 19.0338 3.86641 21.1035 3.83266 23.6667C3.86641 26.2299 5.93611 28.2996 8.49933 28.3333C11.0625 28.2996 13.1322 26.2299 13.166 23.6667C13.1322 21.1035 11.0625 19.0338 8.49933 19ZM11.8327 24.3333H7.83266V20.3333H9.16599V23H11.8327V24.3333ZM14.0273 19.472L12.0213 17.472L12.9607 16.5273L14.9673 18.5273L14.0273 19.4713V19.472ZM2.97066 19.472L2.02733 18.5273L4.02133 16.5273L4.96466 17.472L2.972 19.472H2.97066Z" fill="#23A6F0"/>
</g>
<path d="M24.74 23.244C25.308 22.668 25.712 22.216 25.952 21.888C26.192 21.56 26.312 21.228 26.312 20.892C26.312 20.556 26.184 20.272 25.928 20.04C25.672 19.8 25.348 19.68 24.956 19.68C24.268 19.68 23.696 20.032 23.24 20.736L22.1 20.076C22.468 19.524 22.872 19.108 23.312 18.828C23.76 18.548 24.332 18.408 25.028 18.408C25.732 18.408 26.348 18.632 26.876 19.08C27.404 19.52 27.668 20.124 27.668 20.892C27.668 21.324 27.556 21.736 27.332 22.128C27.108 22.52 26.696 23.024 26.096 23.64L24.128 25.644H27.932V27H22.196V25.8L24.74 23.244ZM32.0064 23.244C32.5744 22.668 32.9784 22.216 33.2184 21.888C33.4584 21.56 33.5784 21.228 33.5784 20.892C33.5784 20.556 33.4504 20.272 33.1944 20.04C32.9384 19.8 32.6144 19.68 32.2224 19.68C31.5344 19.68 30.9624 20.032 30.5064 20.736L29.3664 20.076C29.7344 19.524 30.1384 19.108 30.5784 18.828C31.0264 18.548 31.5984 18.408 32.2944 18.408C32.9984 18.408 33.6144 18.632 34.1424 19.08C34.6704 19.52 34.9344 20.124 34.9344 20.892C34.9344 21.324 34.8224 21.736 34.5984 22.128C34.3744 22.52 33.9624 23.024 33.3624 23.64L31.3944 25.644H35.1984V27H29.4624V25.8L32.0064 23.244ZM41.8778 25.092L41.0378 27H39.5258L43.2218 18.612H44.7338L48.4298 27H46.9178L46.0778 25.092H41.8778ZM45.5018 23.784L43.9778 20.328L42.4538 23.784H45.5018ZM53.024 20.52C53.88 20.52 54.612 20.816 55.22 21.408C55.828 22 56.132 22.788 56.132 23.772C56.132 24.756 55.828 25.556 55.22 26.172C54.62 26.788 53.916 27.096 53.108 27.096C52.308 27.096 51.588 26.744 50.948 26.04V29.328H49.604V20.616H50.948V21.732C51.476 20.924 52.168 20.52 53.024 20.52ZM50.924 23.82C50.924 24.428 51.108 24.928 51.476 25.32C51.844 25.704 52.292 25.896 52.82 25.896C53.348 25.896 53.808 25.704 54.2 25.32C54.592 24.936 54.788 24.44 54.788 23.832C54.788 23.216 54.596 22.708 54.212 22.308C53.828 21.9 53.368 21.696 52.832 21.696C52.296 21.696 51.844 21.9 51.476 22.308C51.108 22.708 50.924 23.212 50.924 23.82ZM61.2145 21.876C60.5505 21.876 60.0505 22.092 59.7145 22.524C59.3785 22.956 59.2105 23.536 59.2105 24.264V27H57.8665V20.616H59.2105V21.9C59.4265 21.5 59.7185 21.172 60.0865 20.916C60.4625 20.66 60.8585 20.528 61.2745 20.52L61.2865 21.876C61.2625 21.876 61.2385 21.876 61.2145 21.876ZM64.1801 27H62.8361V20.616H64.1801V27ZM62.9201 19.344C62.7521 19.176 62.6681 18.976 62.6681 18.744C62.6681 18.512 62.7521 18.312 62.9201 18.144C63.0881 17.976 63.2881 17.892 63.5201 17.892C63.7521 17.892 63.9521 17.976 64.1201 18.144C64.2881 18.312 64.3721 18.512 64.3721 18.744C64.3721 18.976 64.2881 19.176 64.1201 19.344C63.9521 19.512 63.7521 19.596 63.5201 19.596C63.2881 19.596 63.0881 19.512 62.9201 19.344ZM67.673 27H66.329V18.096H67.673V27ZM75.583 23.244C76.151 22.668 76.555 22.216 76.795 21.888C77.035 21.56 77.155 21.228 77.155 20.892C77.155 20.556 77.027 20.272 76.771 20.04C76.515 19.8 76.191 19.68 75.799 19.68C75.111 19.68 74.539 20.032 74.083 20.736L72.943 20.076C73.311 19.524 73.715 19.108 74.155 18.828C74.603 18.548 75.175 18.408 75.871 18.408C76.575 18.408 77.191 18.632 77.719 19.08C78.247 19.52 78.511 20.124 78.511 20.892C78.511 21.324 78.399 21.736 78.175 22.128C77.951 22.52 77.539 23.024 76.939 23.64L74.971 25.644H78.775V27H73.039V25.8L75.583 23.244ZM82.1774 20.484C81.8494 21.06 81.6854 21.816 81.6854 22.752C81.6854 23.688 81.8494 24.444 82.1774 25.02C82.5134 25.596 83.0334 25.884 83.7374 25.884C84.4414 25.884 84.9534 25.6 85.2734 25.032C85.6014 24.456 85.7654 23.696 85.7654 22.752C85.7654 21.808 85.6014 21.052 85.2734 20.484C84.9534 19.908 84.4414 19.62 83.7374 19.62C83.0334 19.62 82.5134 19.908 82.1774 20.484ZM81.1694 25.92C80.6014 25.128 80.3174 24.072 80.3174 22.752C80.3174 21.432 80.6014 20.38 81.1694 19.596C81.7374 18.804 82.5934 18.408 83.7374 18.408C84.8814 18.408 85.7374 18.804 86.3054 19.596C86.8734 20.38 87.1574 21.432 87.1574 22.752C87.1574 24.072 86.8734 25.128 86.3054 25.92C85.7374 26.704 84.8814 27.096 83.7374 27.096C82.5934 27.096 81.7374 26.704 81.1694 25.92ZM91.3111 23.244C91.8791 22.668 92.2831 22.216 92.5231 21.888C92.7631 21.56 92.8831 21.228 92.8831 20.892C92.8831 20.556 92.7551 20.272 92.4991 20.04C92.2431 19.8 91.9191 19.68 91.5271 19.68C90.8391 19.68 90.2671 20.032 89.8111 20.736L88.6711 20.076C89.0391 19.524 89.4431 19.108 89.8831 18.828C90.3311 18.548 90.9031 18.408 91.5991 18.408C92.3031 18.408 92.9191 18.632 93.4471 19.08C93.9751 19.52 94.2391 20.124 94.2391 20.892C94.2391 21.324 94.1271 21.736 93.9031 22.128C93.6791 22.52 93.2671 23.024 92.6671 23.64L90.6991 25.644H94.5031V27H88.7671V25.8L91.3111 23.244ZM95.6855 18.612H98.7335V27H97.3895V19.872H95.6855V18.612Z" fill="#737373"/>
</g>
<g clip-path="url(#clip3_5514_93)">
<g clip-path="url(#clip4_5514_93)">
<path d="M209.333 28.8334H195V15.8334C195 15.7417 194.925 15.6667 194.833 15.6667H193.667C193.575 15.6667 193.5 15.7417 193.5 15.8334V30.1667C193.5 30.2584 193.575 30.3334 193.667 30.3334H209.333C209.425 30.3334 209.5 30.2584 209.5 30.1667V29.0001C209.5 28.9084 209.425 28.8334 209.333 28.8334ZM196.5 27.5001H207.667C207.758 27.5001 207.833 27.4251 207.833 27.3334V18.2501C207.833 18.1001 207.652 18.0272 207.548 18.1313L203.167 22.5126L200.554 19.9292C200.523 19.8982 200.481 19.8808 200.436 19.8808C200.392 19.8808 200.35 19.8982 200.319 19.9292L196.381 23.8792C196.366 23.8946 196.354 23.9128 196.346 23.9328C196.337 23.9528 196.333 23.9743 196.333 23.9959V27.3334C196.333 27.4251 196.408 27.5001 196.5 27.5001Z" fill="#23856D"/>
</g>
<path d="M214.848 18.612H217.896V27H216.552V19.872H214.848V18.612ZM221.838 20.484C221.51 21.06 221.346 21.816 221.346 22.752C221.346 23.688 221.51 24.444 221.838 25.02C222.174 25.596 222.694 25.884 223.398 25.884C224.102 25.884 224.614 25.6 224.934 25.032C225.262 24.456 225.426 23.696 225.426 22.752C225.426 21.808 225.262 21.052 224.934 20.484C224.614 19.908 224.102 19.62 223.398 19.62C222.694 19.62 222.174 19.908 221.838 20.484ZM220.83 25.92C220.262 25.128 219.978 24.072 219.978 22.752C219.978 21.432 220.262 20.38 220.83 19.596C221.398 18.804 222.254 18.408 223.398 18.408C224.542 18.408 225.398 18.804 225.966 19.596C226.534 20.38 226.818 21.432 226.818 22.752C226.818 24.072 226.534 25.128 225.966 25.92C225.398 26.704 224.542 27.096 223.398 27.096C222.254 27.096 221.398 26.704 220.83 25.92ZM235.029 27.096C234.141 27.096 233.377 26.796 232.737 26.196C232.097 25.588 231.777 24.796 231.777 23.82C231.777 22.844 232.109 22.052 232.773 21.444C233.445 20.828 234.261 20.52 235.221 20.52C236.181 20.52 236.993 20.852 237.657 21.516L236.865 22.488C236.313 22.008 235.757 21.768 235.197 21.768C234.637 21.768 234.149 21.956 233.733 22.332C233.325 22.7 233.121 23.18 233.121 23.772C233.121 24.356 233.325 24.852 233.733 25.26C234.141 25.668 234.641 25.872 235.233 25.872C235.833 25.872 236.397 25.6 236.925 25.056L237.717 25.92C236.941 26.704 236.045 27.096 235.029 27.096ZM240.67 25.32C241.054 25.704 241.538 25.896 242.122 25.896C242.706 25.896 243.186 25.704 243.562 25.32C243.946 24.928 244.138 24.424 244.138 23.808C244.138 23.192 243.946 22.692 243.562 22.308C243.186 21.916 242.706 21.72 242.122 21.72C241.538 21.72 241.054 21.916 240.67 22.308C240.294 22.692 240.106 23.192 240.106 23.808C240.106 24.424 240.294 24.928 240.67 25.32ZM244.522 26.148C243.882 26.78 243.082 27.096 242.122 27.096C241.162 27.096 240.362 26.78 239.722 26.148C239.082 25.508 238.762 24.728 238.762 23.808C238.762 22.888 239.082 22.112 239.722 21.48C240.362 20.84 241.162 20.52 242.122 20.52C243.082 20.52 243.882 20.84 244.522 21.48C245.162 22.112 245.482 22.888 245.482 23.808C245.482 24.728 245.162 25.508 244.522 26.148ZM248.554 23.544V27H247.21V20.616H248.554V21.78C248.746 21.388 249.034 21.08 249.418 20.856C249.81 20.632 250.23 20.52 250.678 20.52C251.686 20.52 252.37 20.936 252.73 21.768C253.362 20.936 254.15 20.52 255.094 20.52C255.814 20.52 256.394 20.74 256.834 21.18C257.282 21.62 257.506 22.256 257.506 23.088V27H256.162V23.496C256.162 22.32 255.674 21.732 254.698 21.732C254.242 21.732 253.842 21.88 253.498 22.176C253.162 22.464 252.986 22.888 252.97 23.448V27H251.626V23.496C251.626 22.888 251.518 22.444 251.302 22.164C251.086 21.876 250.746 21.732 250.282 21.732C249.818 21.732 249.414 21.888 249.07 22.2C248.726 22.504 248.554 22.952 248.554 23.544ZM260.918 23.544V27H259.574V20.616H260.918V21.78C261.11 21.388 261.398 21.08 261.782 20.856C262.174 20.632 262.594 20.52 263.042 20.52C264.05 20.52 264.734 20.936 265.094 21.768C265.726 20.936 266.514 20.52 267.458 20.52C268.178 20.52 268.758 20.74 269.198 21.18C269.646 21.62 269.87 22.256 269.87 23.088V27H268.526V23.496C268.526 22.32 268.038 21.732 267.062 21.732C266.606 21.732 266.206 21.88 265.862 22.176C265.526 22.464 265.35 22.888 265.334 23.448V27H263.99V23.496C263.99 22.888 263.882 22.444 263.666 22.164C263.45 21.876 263.11 21.732 262.646 21.732C262.182 21.732 261.778 21.888 261.434 22.2C261.09 22.504 260.918 22.952 260.918 23.544ZM277.878 24.396H272.874C272.906 24.86 273.118 25.236 273.51 25.524C273.902 25.804 274.35 25.944 274.854 25.944C275.654 25.944 276.262 25.692 276.678 25.188L277.446 26.028C276.758 26.74 275.862 27.096 274.758 27.096C273.862 27.096 273.098 26.8 272.466 26.208C271.842 25.608 271.53 24.808 271.53 23.808C271.53 22.8 271.85 22 272.49 21.408C273.13 20.816 273.882 20.52 274.746 20.52C275.618 20.52 276.358 20.784 276.966 21.312C277.574 21.832 277.878 22.552 277.878 23.472V24.396ZM272.874 23.34H276.534C276.534 22.804 276.366 22.392 276.03 22.104C275.694 21.816 275.278 21.672 274.782 21.672C274.294 21.672 273.854 21.824 273.462 22.128C273.07 22.424 272.874 22.828 272.874 23.34ZM280.9 23.544V27H279.556V20.616H280.9V21.78C281.116 21.388 281.412 21.08 281.788 20.856C282.172 20.632 282.584 20.52 283.024 20.52C283.744 20.52 284.324 20.74 284.764 21.18C285.212 21.62 285.436 22.256 285.436 23.088V27H284.092V23.496C284.092 22.32 283.604 21.732 282.628 21.732C282.164 21.732 281.76 21.888 281.416 22.2C281.072 22.504 280.9 22.952 280.9 23.544ZM289.088 21.696V24.936C289.088 25.24 289.168 25.484 289.328 25.668C289.488 25.844 289.712 25.932 290 25.932C290.288 25.932 290.564 25.792 290.828 25.512L291.38 26.46C290.908 26.884 290.384 27.096 289.808 27.096C289.24 27.096 288.752 26.9 288.344 26.508C287.944 26.108 287.744 25.572 287.744 24.9V21.696H286.94V20.616H287.744V18.612H289.088V20.616H290.768V21.696H289.088ZM297.196 25.092C297.196 25.7 296.976 26.188 296.536 26.556C296.096 26.916 295.532 27.096 294.844 27.096C294.38 27.096 293.896 27.012 293.392 26.844C292.896 26.676 292.456 26.44 292.072 26.136L292.72 25.092C293.464 25.652 294.184 25.932 294.88 25.932C295.184 25.932 295.424 25.864 295.6 25.728C295.776 25.584 295.864 25.404 295.864 25.188C295.864 24.868 295.44 24.58 294.592 24.324C294.528 24.3 294.48 24.284 294.448 24.276C293.12 23.916 292.456 23.316 292.456 22.476C292.456 21.884 292.684 21.412 293.14 21.06C293.604 20.7 294.204 20.52 294.94 20.52C295.676 20.52 296.372 20.736 297.028 21.168L296.524 22.164C296.004 21.82 295.44 21.648 294.832 21.648C294.512 21.648 294.252 21.708 294.052 21.828C293.852 21.94 293.752 22.112 293.752 22.344C293.752 22.552 293.856 22.704 294.064 22.8C294.208 22.872 294.408 22.94 294.664 23.004C294.928 23.068 295.16 23.132 295.36 23.196C295.56 23.26 295.752 23.332 295.936 23.412C296.128 23.492 296.332 23.604 296.548 23.748C296.98 24.036 297.196 24.484 297.196 25.092Z" fill="#737373"/>
</g>
</g>
<defs>
<clipPath id="clip0_5514_93">
<rect width="298" height="46" fill="white" transform="translate(0.5)"/>
</clipPath>
<clipPath id="clip1_5514_93">
<rect width="98" height="16" fill="white" transform="translate(0.5 15)"/>
</clipPath>
<clipPath id="clip2_5514_93">
<rect width="16" height="16" fill="white" transform="translate(0.5 15)"/>
</clipPath>
<clipPath id="clip3_5514_93">
<rect width="105" height="16" fill="white" transform="translate(193.5 15)"/>
</clipPath>
<clipPath id="clip4_5514_93">
<rect width="16" height="14.6667" fill="white" transform="translate(193.5 15.6667)"/>
</clipPath>
</defs>
</svg>
